{"glyphs":{" ":{"ha":417,"x_min":0,"x_max":0,"o":""},"&":{"ha":949,"x_min":32,"x_max":1174,"o":"m 676 324 q 710 326 689 319 q 744 344 731 332 q 758 365 757 356 q 744 389 760 376 q 742 421 728 404 q 774 424 756 438 q 803 361 806 394 q 965 365 858 363 q 969 365 967 365 q 972 365 971 365 q 1150 371 1089 368 q 1165 365 1158 371 q 1173 349 1172 358 q 1167 333 1174 340 q 1151 326 1161 326 q 974 321 1090 324 q 969 321 971 321 l 967 321 q 778 315 844 318 q 774 311 776 313 q 724 283 751 293 q 742 218 744 253 q 671 118 738 160 q 482 69 571 54 q 363 154 400 83 q 357 300 325 224 q 367 321 361 311 q 222 319 319 319 q 182 318 196 319 q 54 317 107 318 q 39 323 46 317 q 32 338 32 329 q 38 354 32 347 q 53 361 44 361 q 182 363 106 363 q 222 364 196 364 q 396 365 336 364 q 401 365 399 365 q 461 411 426 392 q 447 440 451 424 q 478 535 436 486 q 571 594 517 581 q 683 574 635 613 q 686 542 700 560 q 654 540 672 525 q 582 553 625 564 q 513 506 542 540 q 490 450 485 474 q 510 429 494 438 q 515 425 513 428 q 547 418 528 421 q 647 435 610 408 q 678 431 665 449 q 674 400 692 413 q 540 374 621 361 q 503 383 519 376 q 397 283 424 344 q 401 175 374 226 q 489 113 429 124 q 647 156 561 100 q 697 221 694 185 q 674 272 700 250 q 613 289 646 294 q 546 239 572 283 q 532 228 540 231 q 515 231 524 226 q 505 245 507 236 q 507 261 503 254 q 606 333 544 324 q 675 324 642 339 l 676 324 z "},"(":{"ha":668,"x_min":-246,"x_max":890,"o":"m -246 214 q 3 443 -193 413 q 188 442 79 456 q 386 407 264 433 q 436 396 404 403 q 560 369 522 376 q 675 350 626 356 q 863 357 794 335 q 879 356 871 360 q 890 343 888 351 q 890 326 893 335 q 876 315 886 318 q 669 306 799 289 q 550 325 618 311 q 426 353 513 333 q 376 364 394 360 q 182 399 256 389 q 10 399 81 410 q -127 338 -75 386 q -203 201 -179 290 q -213 188 -206 193 q -230 186 -221 183 q -244 197 -239 189 q -246 214 -249 204 z "},")":{"ha":672,"x_min":-232,"x_max":896,"o":"m 896 396 q 639 182 833 200 q 457 196 563 176 q 264 246 383 211 q 222 258 247 250 q 100 294 136 283 q -15 322 33 313 q -204 325 -135 344 q -221 327 -212 322 q -232 340 -229 332 q -230 357 -235 349 q -217 368 -225 365 q -7 365 -136 390 q 111 336 44 356 q 235 301 149 326 q 276 289 261 293 q 467 240 394 254 q 635 226 565 221 q 772 278 718 233 q 853 408 825 322 q 864 422 856 418 q 881 424 872 426 q 894 413 889 421 q 896 396 899 404 z "},"+":{"ha":957,"x_min":36,"x_max":1181,"o":"m 665 482 q 717 488 686 489 q 763 481 747 488 q 814 389 814 453 l 813 358 l 899 361 q 1138 368 1107 368 q 1174 363 1168 368 q 1181 344 1181 354 q 1153 324 1181 328 q 981 317 1126 321 q 794 310 797 311 q 782 289 790 307 q 676 160 756 238 q 626 116 639 122 q 599 122 614 110 q 536 171 592 129 q 408 292 439 247 l 390 318 l 219 315 q 76 313 104 313 q 42 318 47 314 q 36 335 36 325 q 42 353 36 346 q 122 360 50 360 q 286 363 197 360 l 376 365 l 378 383 q 398 435 379 408 q 444 475 417 461 q 509 483 471 489 q 578 456 547 478 q 600 442 600 439 q 624 461 600 446 q 665 482 649 476 z "},"-":{"ha":949,"x_min":32,"x_max":1174,"o":"m 585 388 q 578 392 582 389 q 576 393 578 393 q 481 443 526 447 q 429 411 449 439 q 417 375 417 394 q 449 308 417 346 q 525 238 475 278 q 554 215 538 228 q 568 204 557 213 q 581 196 579 196 q 613 169 601 179 q 749 339 715 265 q 753 428 775 399 q 693 446 735 453 q 611 396 644 439 q 610 393 611 394 q 604 389 607 390 q 594 386 600 386 q 585 388 589 386 m 53 361 q 182 363 106 363 q 222 364 196 364 q 374 365 324 364 q 372 375 372 369 q 393 438 372 408 q 476 488 424 481 q 592 440 535 493 q 686 490 633 482 q 789 454 754 501 q 803 361 817 418 q 965 365 858 363 q 969 365 967 365 q 972 365 971 365 q 1150 371 1089 368 q 1165 365 1158 371 q 1173 349 1172 358 q 1167 333 1174 340 q 1151 326 1161 326 q 974 321 1090 324 q 969 321 971 321 l 967 321 q 786 315 849 318 q 626 122 746 229 q 596 125 610 108 q 593 129 593 126 q 554 160 581 139 q 542 169 553 161 q 526 181 531 178 q 499 203 510 193 q 415 279 443 246 q 388 321 397 301 q 222 319 331 319 q 182 318 196 319 q 54 317 107 318 q 39 323 46 317 q 32 338 32 329 q 38 354 32 347 q 53 361 44 361 z "},"[":{"ha":669,"x_min":-146,"x_max":894,"o":"m -143 181 q -111 210 -131 192 q -104 216 -110 211 q -97 222 -99 221 q 17 331 -18 292 q -58 400 -7 354 q -61 403 -60 401 q -142 478 -115 451 q -142 509 -157 493 q -110 510 -126 525 q -31 436 -85 483 q -29 433 -29 435 q 50 361 25 386 q 190 361 119 361 q 174 376 183 368 q 169 381 172 378 q 36 496 82 458 q 32 527 18 510 q 64 531 46 544 q 200 413 111 493 q 203 410 201 411 q 246 371 231 385 q 253 363 250 368 q 331 364 288 363 q 242 447 294 394 q 217 472 238 451 q 194 494 197 492 q 194 526 179 511 q 226 526 210 542 q 249 503 229 522 q 274 479 268 483 q 392 371 344 407 q 394 369 393 371 q 401 365 399 368 q 458 367 425 365 q 664 371 596 369 q 872 372 779 372 q 888 366 881 372 q 894 351 894 360 q 888 335 894 342 q 872 328 881 328 q 665 326 781 328 q 458 322 596 325 q 389 321 419 321 q 311 247 364 296 q 310 246 310 247 q 235 176 260 200 q 203 176 219 160 q 204 207 188 192 q 279 279 229 232 q 282 281 281 279 q 324 319 308 304 q 219 317 264 318 q 126 233 190 292 l 125 232 q 67 179 86 196 q 35 181 50 164 q 36 211 19 197 q 94 265 57 229 q 96 267 96 265 q 151 317 132 299 q 63 317 107 317 q 60 313 61 314 q -68 189 19 265 q -75 183 -69 188 q -82 176 -81 178 q -114 147 -101 158 q -145 149 -131 133 q -143 181 -160 165 z "},"]":{"ha":863,"x_min":39,"x_max":1085,"o":"m 1031 374 q 975 422 1014 389 q 974 425 975 424 q 900 490 926 468 q 900 246 908 374 q 960 303 921 267 l 960 304 l 963 306 l 964 308 q 969 313 967 310 q 1031 374 1010 351 m 890 558 q 1003 458 933 521 q 1006 456 1004 457 q 1071 397 1050 415 q 1078 393 1075 396 q 1085 382 1083 388 q 1081 358 1090 369 q 1072 353 1076 354 q 1000 281 1047 325 q 994 276 997 278 q 990 271 992 274 q 893 172 925 208 q 869 165 883 161 q 856 174 861 167 q 851 189 850 181 q 860 332 858 260 q 61 318 413 332 q 46 324 53 318 q 39 340 39 331 q 45 356 39 349 q 60 363 51 363 q 860 376 411 376 q 851 532 860 460 q 853 543 851 538 q 858 554 854 550 q 890 558 872 572 z "},"_":{"ha":681,"x_min":64,"x_max":906,"o":"m 86 361 q 383 363 208 363 q 478 364 415 364 q 883 365 740 364 q 899 359 892 365 q 906 344 906 353 q 899 328 906 335 q 883 321 893 321 q 478 319 742 319 q 383 318 417 319 q 86 317 208 318 q 71 323 78 317 q 64 339 64 329 q 71 355 64 349 q 86 361 78 361 z "},"a":{"ha":583,"x_min":44,"x_max":803,"o":"m 593 464 q 544 386 581 438 q 508 336 538 378 q 474 288 478 294 q 440 239 456 261 q 371 119 392 167 q 356 42 347 65 q 368 31 360 32 q 408 43 382 29 q 544 146 461 68 q 685 285 608 203 q 769 378 726 329 q 801 380 783 394 q 803 349 818 365 q 718 254 760 300 q 575 113 640 171 q 429 3 486 32 q 364 -14 392 -15 q 314 26 328 -10 q 321 111 303 60 q 232 43 267 65 q 118 -3 164 1 q 44 32 67 -7 q 63 218 10 92 q 201 418 114 340 q 410 479 308 514 q 496 394 475 458 q 508 411 504 407 q 553 482 542 461 q 565 494 557 490 q 582 493 574 497 q 594 481 590 489 q 593 464 597 472 m 458 361 q 396 438 450 419 q 231 385 319 463 q 103 200 150 313 q 83 54 58 94 q 114 42 92 39 q 210 81 150 44 q 294 149 240 101 q 297 150 296 149 q 299 153 299 151 q 368 208 343 190 l 368 210 q 404 264 383 235 q 438 313 418 286 q 464 350 442 319 q 458 361 460 354 z "},"b":{"ha":550,"x_min":42,"x_max":771,"o":"m 482 354 q 486 385 485 371 q 469 444 489 424 q 403 465 449 464 q 390 464 394 465 q 388 463 389 464 l 386 460 q 388 450 386 457 q 447 376 397 414 q 482 354 464 364 m 582 926 q 488 769 565 876 q 414 668 461 732 q 392 640 410 663 q 374 614 375 617 q 332 558 350 582 q 274 479 300 514 q 118 224 161 321 q 99 60 65 106 q 231 44 142 0 q 400 196 319 88 q 467 311 444 254 q 421 340 443 324 q 344 439 358 388 q 353 491 336 471 q 404 510 369 511 q 501 474 468 507 q 531 382 533 440 q 522 336 529 361 q 576 324 549 326 q 740 368 661 315 q 771 362 758 381 q 764 331 783 343 q 572 279 672 269 q 508 293 539 283 q 436 169 483 232 q 250 4 349 51 q 149 -18 194 -24 q 63 33 96 -12 q 42 128 35 71 q 78 242 47 176 q 238 504 122 343 q 296 585 264 540 q 338 640 314 608 q 356 666 339 643 q 378 694 374 689 q 451 794 425 758 q 540 940 525 897 q 551 953 543 949 q 568 954 560 957 q 581 943 576 951 q 582 926 585 935 z "},"c":{"ha":465,"x_min":53,"x_max":683,"o":"m 432 408 q 246 414 342 479 q 169 335 204 385 q 114 229 135 286 q 97 127 96 174 q 118 57 97 81 q 185 32 140 31 q 322 75 240 33 q 451 161 392 108 q 553 268 494 200 l 600 324 q 651 382 629 358 q 682 384 665 399 q 683 353 699 369 q 635 294 663 329 q 588 239 597 251 q 481 128 526 169 q 343 35 417 72 q 185 -12 250 -11 q 85 28 119 -14 q 53 120 56 63 q 72 243 50 178 q 133 362 94 307 q 221 450 172 417 q 460 443 343 533 q 463 412 476 429 q 432 408 449 394 z "},"d":{"ha":682,"x_min":7,"x_max":907,"o":"m 903 917 q 808 782 893 900 q 646 549 710 643 q 590 465 617 506 q 408 143 453 256 q 389 53 383 81 q 394 43 390 44 q 419 40 401 39 q 542 104 476 49 q 656 229 594 150 q 708 300 679 258 q 728 329 708 301 q 753 364 747 357 q 783 369 765 382 q 789 338 801 356 q 765 304 785 332 q 744 275 744 276 q 690 201 714 232 q 571 71 626 118 q 425 -3 496 7 q 344 44 356 -12 q 350 110 340 71 q 344 106 347 108 q 279 65 321 90 q 271 61 275 64 q 264 57 265 58 q 93 -8 157 -4 q 7 46 24 -12 q 17 153 -6 86 q 88 294 39 219 q 196 422 138 368 q 308 497 254 476 q 428 490 376 524 q 492 394 469 463 q 553 490 519 439 q 608 574 579 529 q 772 807 674 669 q 865 940 856 925 q 879 949 871 947 q 896 947 888 951 q 906 933 904 942 q 903 917 908 924 m 460 346 q 403 453 442 428 q 324 456 371 474 q 224 388 278 439 q 125 269 171 338 q 62 146 83 204 q 50 58 40 88 q 90 36 57 35 q 242 96 143 40 q 249 100 243 97 l 250 100 q 257 104 254 103 q 376 188 339 151 q 381 192 378 190 q 461 342 410 256 q 460 346 460 343 z "},"e":{"ha":449,"x_min":21,"x_max":668,"o":"m 153 276 q 194 301 169 288 q 213 311 200 304 q 301 364 272 344 q 347 405 326 379 q 374 451 368 431 q 375 463 376 458 q 360 465 371 465 q 319 457 343 464 q 218 399 272 443 q 124 299 164 356 q 65 176 79 235 q 72 71 51 117 q 168 28 94 24 q 297 64 228 32 q 479 196 390 108 q 629 369 533 250 l 631 372 q 633 374 632 374 q 665 378 647 392 q 668 346 682 364 q 664 342 667 344 q 510 164 567 219 q 317 25 417 72 q 171 -17 240 -12 q 92 -6 125 -19 q 32 53 51 11 q 22 182 7 113 q 88 324 36 251 q 192 435 132 388 q 307 500 253 483 q 396 501 368 518 q 418 472 414 492 q 417 439 422 457 q 383 378 408 410 q 326 326 357 346 q 235 272 294 307 q 217 263 222 265 q 176 239 192 249 q 159 237 168 235 q 145 247 150 239 q 143 263 140 254 q 153 276 146 272 z "},"f":{"ha":592,"x_min":-132,"x_max":815,"o":"m -17 440 q 147 468 39 450 q 206 478 186 475 q 229 482 217 481 q 324 658 275 582 q 564 908 429 825 q 700 953 628 947 q 774 939 744 956 q 815 868 810 917 q 811 852 817 860 q 797 844 806 844 q 780 849 788 843 q 772 864 772 854 q 751 900 768 890 q 703 908 733 911 q 588 871 642 904 q 361 635 461 793 q 282 492 321 571 q 564 546 449 519 q 580 542 572 547 q 590 528 588 538 q 587 512 592 519 q 574 503 582 504 q 260 442 450 475 q 207 319 236 389 l 154 185 q 43 -62 89 22 q -100 -254 -24 -187 q -131 -251 -117 -268 q -129 -221 -146 -235 q 4 -42 -60 -160 q 113 201 49 40 q 167 336 154 304 q 207 433 188 390 q 154 425 192 431 q -10 396 46 407 q -26 400 -18 394 q -35 415 -33 406 q -31 431 -36 424 q -17 440 -26 439 z "},"g":{"ha":578,"x_min":-217,"x_max":797,"o":"m 593 447 q 526 332 549 369 q 364 57 432 167 q 551 182 454 101 q 764 394 657 269 q 794 397 778 411 q 797 365 811 382 q 581 149 688 238 q 324 -8 446 36 q 215 -156 265 -100 q 32 -292 128 -257 q -93 -324 -29 -314 q -169 -325 -140 -331 q -217 -274 -217 -315 q -210 -258 -217 -264 q -194 -251 -203 -251 q -178 -258 -185 -251 q -172 -274 -172 -264 q -171 -276 -172 -276 q -160 -282 -168 -279 q -100 -281 -139 -286 q 17 -250 -40 -271 q 182 -126 101 -219 q 307 50 235 -67 q 326 82 317 65 q 308 71 319 78 q 289 58 297 64 l 281 54 q 126 -12 189 -3 q 28 14 61 -22 q 25 219 -31 75 q 91 340 50 283 q 179 433 132 397 q 410 453 301 528 q 496 367 461 418 q 556 469 514 397 q 569 480 560 478 q 585 478 578 482 q 596 465 593 474 q 593 447 599 456 m 467 331 q 429 380 446 363 q 385 417 413 397 q 206 397 303 472 q 126 313 164 365 q 67 204 89 261 q 44 106 46 149 q 60 44 42 63 q 119 32 78 25 q 257 92 174 40 q 265 97 258 92 q 281 106 272 101 q 299 117 290 111 q 311 125 308 122 q 346 149 331 138 q 388 185 367 164 q 390 188 389 186 q 472 325 426 249 q 467 331 468 328 z "},"h":{"ha":575,"x_min":-61,"x_max":796,"o":"m 579 914 q 271 468 433 718 q 194 350 232 411 q 265 404 233 382 q 273 410 267 406 q 281 415 279 414 q 404 486 356 468 q 496 497 467 510 q 521 467 515 489 q 518 432 524 453 q 482 351 510 403 q 425 256 468 326 q 417 240 421 247 q 342 94 356 139 q 338 57 333 68 q 354 47 340 49 q 410 57 381 44 q 465 88 429 65 l 467 89 q 469 90 468 89 q 479 97 476 94 q 640 222 564 150 q 758 360 715 293 q 788 367 769 379 q 796 336 807 356 q 671 190 750 264 q 503 60 592 115 q 493 53 500 57 l 492 51 q 489 50 490 51 q 426 15 450 25 q 350 4 388 0 q 296 42 307 8 q 299 108 286 67 q 378 264 314 157 q 388 279 382 271 q 443 372 429 349 q 475 443 468 419 q 476 457 478 453 l 475 457 q 474 457 475 457 q 463 457 469 457 q 419 444 446 454 q 306 379 376 428 q 299 373 306 378 q 290 368 292 368 q 186 288 254 342 l 183 286 l 181 283 q 131 242 149 257 q 122 239 126 240 q -19 8 60 139 q -34 -1 -25 1 q -51 2 -43 -3 q -60 16 -58 7 q -57 32 -62 25 q 233 493 111 307 q 543 940 397 743 q 574 945 556 958 q 579 914 592 932 z "},"i":{"ha":263,"x_min":6,"x_max":483,"o":"m 285 460 q 183 293 256 400 q 181 289 182 292 q 122 200 142 231 q 72 107 92 150 q 50 39 50 58 q 178 111 83 42 q 349 256 257 171 q 446 354 431 331 q 477 360 458 372 q 483 329 496 349 q 373 217 464 300 q 204 76 282 133 q 54 -6 100 -1 q 20 4 33 -7 q 6 36 7 15 q 32 126 4 67 q 85 222 53 171 q 144 314 104 254 q 146 318 146 315 q 244 479 217 422 q 258 491 249 488 q 275 490 267 494 q 286 477 283 486 q 285 460 289 468 m 408 675 q 404 665 407 671 l 404 664 l 403 663 l 403 661 l 401 660 l 401 658 l 401 657 l 400 656 q 388 644 396 647 q 371 644 379 640 q 359 656 363 647 q 360 674 356 665 q 364 683 361 678 l 364 685 l 365 686 l 365 688 l 367 689 l 367 690 l 367 692 l 368 693 q 381 705 372 701 q 397 705 389 708 q 409 692 406 701 q 408 675 413 683 z "},"j":{"ha":253,"x_min":-264,"x_max":472,"o":"m 269 458 q 250 419 267 453 q 228 375 246 413 l 210 338 q 92 103 143 199 q 81 82 86 92 q 172 142 113 106 q 179 146 175 143 l 182 147 q 186 150 185 150 q 321 240 276 207 q 438 354 390 294 q 468 358 450 372 q 472 326 486 344 q 347 206 422 263 q 210 113 301 171 l 203 108 q 196 104 199 106 q 50 6 100 44 q 35 0 43 -1 q 19 -26 28 -14 q -133 -237 -72 -183 q -210 -268 -175 -275 q -264 -200 -249 -261 q -251 -124 -274 -157 q -221 -117 -239 -104 q -215 -147 -203 -129 q -221 -189 -226 -165 q -208 -218 -215 -210 q -200 -225 -204 -224 q -162 -204 -189 -228 q -18 -3 -107 -154 q 51 124 14 53 q 169 357 103 219 l 189 394 q 210 439 207 432 q 232 483 228 475 q 263 490 244 501 q 269 458 282 478 m 375 685 q 376 696 375 690 q 376 707 376 701 q 385 722 378 717 q 401 727 392 728 q 415 719 410 726 q 421 704 421 713 q 420 692 421 699 q 419 681 419 686 q 411 666 418 672 q 395 660 404 660 q 380 668 386 661 q 375 685 374 675 z "},"k":{"ha":567,"x_min":-87,"x_max":792,"o":"m 242 261 q 238 268 240 265 q 168 293 215 301 q 156 289 161 292 q 147 278 151 283 q 151 274 149 276 q 174 261 158 265 q 242 261 201 254 m 575 932 q 272 461 382 626 q 190 339 229 397 q 275 293 243 338 q 286 272 281 283 q 479 383 374 301 q 510 379 497 397 q 507 349 524 361 q 303 231 396 263 q 315 182 307 215 l 315 181 q 336 114 328 135 q 363 71 347 83 q 407 58 379 56 q 497 90 443 61 q 639 210 567 128 q 750 365 697 278 q 763 376 754 374 q 781 374 772 378 q 791 360 789 369 q 788 343 793 351 q 672 181 733 251 q 519 51 594 92 q 333 36 396 -15 q 294 97 310 57 q 272 171 285 121 q 260 219 264 204 q 161 219 203 207 q 121 240 136 226 q -53 8 28 108 q -84 6 -67 -8 q -87 36 -101 19 q 104 293 0 146 q 124 322 108 310 q 235 486 176 399 q 536 956 346 651 q 567 962 549 974 q 575 932 586 950 z "},"l":{"ha":368,"x_min":-1,"x_max":588,"o":"m 588 946 q 403 696 465 783 q 228 435 300 551 q 68 132 122 265 q 43 44 43 72 q 44 38 43 40 q 46 35 44 35 q 49 33 47 35 q 176 99 81 31 q 356 246 257 157 q 461 350 440 322 q 492 355 475 368 q 497 324 510 342 q 386 213 474 293 q 203 63 286 122 q 43 -10 92 -15 q -1 43 0 -6 q 26 150 -1 81 q 190 458 82 286 q 367 721 264 576 q 553 972 431 810 q 583 977 565 990 q 588 946 601 964 z "},"m":{"ha":900,"x_min":-54,"x_max":1124,"o":"m 771 204 q 739 156 751 175 q 711 110 722 128 q 679 43 685 64 q 678 39 678 42 q 754 64 699 39 q 868 131 826 97 q 996 253 935 182 q 1008 267 1000 258 q 1014 273 1010 268 q 1021 281 1018 278 q 1083 367 1067 333 q 1096 378 1088 375 q 1113 376 1104 381 q 1124 363 1121 372 q 1122 346 1126 354 q 1054 251 1103 308 q 1047 244 1051 249 q 1042 238 1042 239 q 1029 224 1033 229 q 894 96 965 150 q 772 24 849 60 q 669 -6 701 -8 q 636 18 646 -3 q 636 54 631 33 q 674 133 643 82 q 703 179 685 151 l 733 228 q 747 249 742 239 q 817 374 800 331 q 822 429 835 419 q 703 425 783 457 q 494 275 547 364 q 483 265 492 268 q 471 238 478 251 q 433 171 454 207 q 376 76 410 129 q 343 22 346 28 q 328 13 338 15 q 312 15 319 10 q 302 28 304 19 q 304 44 300 38 l 339 100 q 396 193 371 151 q 431 258 415 228 q 486 424 492 376 q 469 444 483 440 q 382 425 442 450 q 186 293 257 376 q 172 286 181 288 q 101 181 149 249 q 32 82 51 110 q -14 8 6 42 q -27 -1 -18 1 q -44 1 -36 -4 q -54 15 -51 6 q -51 32 -57 24 q -4 107 -32 65 q 65 207 15 136 q 158 347 128 297 q 229 490 206 425 q 240 503 232 500 q 258 504 249 507 q 271 493 267 501 q 271 475 275 485 q 238 399 257 439 q 365 467 294 439 q 478 488 438 496 q 531 429 525 478 q 525 375 532 406 q 560 401 542 389 q 688 467 614 438 q 764 486 729 483 q 847 465 814 489 q 872 415 872 449 q 858 357 871 390 q 785 225 839 311 q 771 204 779 215 z "},"n":{"ha":626,"x_min":-46,"x_max":847,"o":"m 219 388 q 288 429 251 411 q 383 472 346 461 q 497 472 451 494 q 539 422 532 456 q 531 358 544 396 q 450 224 514 311 q 436 204 444 215 q 382 126 394 147 q 346 64 356 88 q 342 38 338 43 q 350 33 344 35 q 376 29 360 29 q 503 75 426 29 q 626 169 567 113 q 640 182 628 171 q 665 206 651 193 q 685 225 679 219 q 811 368 771 308 q 841 374 822 386 q 847 343 860 361 q 715 193 806 281 q 696 174 710 188 q 670 149 682 161 q 657 138 658 138 q 525 36 594 78 q 456 1 486 13 q 376 -15 414 -15 q 306 13 324 -15 q 304 81 289 38 q 344 151 315 108 q 400 231 358 172 q 414 249 408 242 q 489 374 474 333 q 496 413 499 399 q 478 432 493 425 q 397 431 449 446 q 308 390 364 419 q 161 275 218 343 q 144 267 154 268 q 61 128 113 214 l 58 122 q 56 117 56 118 q 49 104 51 110 q -4 17 15 50 q -17 8 -8 10 q -35 10 -26 6 q -45 23 -43 14 q -42 40 -47 32 q 10 128 -22 74 q 17 139 13 132 q 21 144 18 140 l 24 150 q 236 494 160 381 q 267 501 249 513 q 274 469 285 489 q 219 388 244 428 z "},"o":{"ha":556,"x_min":-6,"x_max":776,"o":"m 433 432 q 422 469 432 458 q 389 478 411 479 q 257 419 336 475 q 115 281 176 361 q 39 121 50 194 q 43 35 31 63 q 71 13 51 15 q 219 79 121 7 q 389 243 313 149 q 465 386 465 338 q 472 402 465 396 q 488 408 479 408 l 489 408 q 503 402 497 408 q 510 386 510 396 q 533 321 510 342 q 596 305 556 303 q 678 328 636 307 q 740 378 719 349 q 771 383 753 396 q 776 351 789 369 q 699 289 749 314 q 599 261 649 264 q 506 286 542 258 q 486 308 494 296 q 424 214 464 265 q 246 43 344 115 q 67 -31 133 -39 q 1 17 21 -26 q -6 126 -15 56 q 81 308 7 213 q 232 456 144 393 q 386 522 321 518 q 451 502 426 525 q 478 435 475 479 q 472 418 478 425 q 456 411 465 411 q 440 417 447 411 q 433 432 433 424 z "},"p":{"ha":565,"x_min":-239,"x_max":786,"o":"m 364 136 q 278 122 308 129 q 201 99 232 113 q 174 76 183 89 q 169 63 168 68 q 178 56 171 58 q 210 51 189 49 q 364 136 288 60 m 447 708 q 331 510 417 660 q 283 426 303 460 q 376 472 332 458 q 468 472 432 489 q 522 388 515 453 q 468 194 532 297 q 499 201 483 197 q 639 264 571 222 q 749 364 715 310 q 779 370 760 382 q 786 340 799 358 q 663 225 747 278 q 510 158 589 181 q 432 144 478 150 q 329 51 386 88 q 215 7 272 14 q 158 15 181 4 q 126 53 132 28 q 136 99 121 76 q 182 138 151 122 q 268 167 218 156 q 361 181 301 174 q 375 182 365 181 q 408 186 394 183 q 478 383 488 292 q 450 432 474 422 q 389 429 429 442 q 317 394 356 418 q 258 349 278 371 q 236 343 249 339 q 176 242 207 293 q 92 103 132 165 q -208 -282 -104 -212 q -239 -275 -226 -293 q -233 -244 -251 -257 q 54 126 -136 -181 q 139 265 93 189 q 293 532 192 354 q 410 732 379 682 q 424 742 415 740 q 440 740 432 744 q 451 726 449 735 q 447 708 453 717 z "},"q":{"ha":582,"x_min":-6,"x_max":803,"o":"m 243 -12 q 232 -29 238 -21 q 117 -218 160 -129 q 100 -274 101 -250 q 107 -297 100 -290 q 158 -293 122 -314 q 232 -201 207 -268 q 243 -12 263 -121 m 458 356 q 404 428 463 411 q 290 414 343 444 q 181 314 250 390 q 67 160 108 233 q 35 57 21 82 q 58 46 39 47 q 147 64 90 44 q 313 163 260 101 q 331 171 319 171 q 336 178 333 174 q 343 186 340 183 q 449 319 413 272 q 464 339 456 329 q 458 356 457 346 m 581 433 q 483 292 542 368 q 378 158 449 244 q 371 150 376 157 q 278 33 308 72 q 542 151 396 42 q 669 266 608 203 q 765 389 729 329 q 797 395 778 407 q 803 365 815 383 q 701 236 764 303 q 568 115 639 169 q 289 -10 417 1 q 274 -217 308 -128 q 181 -333 243 -299 q 122 -348 150 -349 q 75 -328 93 -347 q 76 -199 35 -285 q 196 -3 121 -107 q 238 53 217 25 q 161 21 200 35 q 56 1 96 0 q -6 36 10 4 q 28 182 -29 83 q 146 342 71 258 q 268 453 221 425 q 339 475 299 471 q 415 469 379 479 q 500 390 485 451 q 543 456 524 424 q 556 466 547 464 q 573 463 565 468 q 583 449 581 458 q 581 433 585 440 z "},"r":{"ha":378,"x_min":-43,"x_max":601,"o":"m 404 433 q 351 403 381 424 q 239 304 307 371 q 227 291 236 300 q 210 273 218 282 q 194 257 201 264 q 186 250 188 250 q 138 201 157 219 q 129 197 133 199 q 110 171 121 186 q 108 168 110 169 q -6 3 31 60 q -35 -3 -17 -15 q -43 26 -54 8 q 72 194 -6 85 q 75 197 74 196 q 168 331 138 285 q 250 468 217 404 q 263 479 254 476 q 281 478 272 482 q 292 465 289 474 q 290 449 294 456 q 249 375 271 413 q 326 439 290 414 q 392 476 361 464 q 411 482 403 481 q 428 482 421 483 q 447 471 440 479 q 453 438 457 457 q 444 413 451 428 q 442 407 443 410 q 433 386 433 389 q 435 364 431 371 q 440 358 436 361 q 494 365 457 354 q 532 381 511 371 q 571 399 547 386 q 588 400 579 403 q 600 389 596 397 q 601 372 604 381 q 590 358 599 363 q 549 339 567 346 q 507 324 526 329 q 428 317 457 307 q 389 393 381 331 q 394 410 389 400 q 397 418 396 414 q 401 425 399 419 q 404 432 403 429 q 404 433 404 432 z "},"s":{"ha":436,"x_min":-57,"x_max":657,"o":"m 174 356 q 119 282 153 328 l 118 282 q 49 185 71 218 q 17 140 31 161 q 17 135 17 138 q 27 67 10 97 q 79 22 44 36 q 144 19 111 8 q 199 61 178 29 q 207 211 231 114 q 196 251 203 225 q 181 308 185 290 q 174 356 175 335 m 240 447 q 217 367 214 415 q 239 264 218 336 q 250 221 246 236 q 263 131 263 168 q 247 60 261 92 q 439 165 346 85 q 535 261 485 204 q 621 369 568 300 q 652 373 635 386 q 657 342 669 360 q 568 232 601 272 q 468 131 515 172 q 210 7 346 26 q 140 -28 181 -21 q 61 -19 100 -35 q -25 78 -7 10 q -46 79 -36 72 q -57 92 -54 83 q -54 110 -60 101 q 11 211 -28 156 q 83 308 35 244 q 208 488 171 426 q 223 498 214 496 q 240 495 232 500 q 249 481 247 490 q 247 465 251 472 q 246 463 246 464 q 240 447 246 454 z "},"t":{"ha":351,"x_min":-6,"x_max":572,"o":"m 385 621 q 369 599 383 617 q 340 559 356 581 q 321 532 325 538 q 294 496 307 514 q 474 507 390 500 q 490 502 483 508 q 498 487 497 496 q 493 471 499 478 q 478 463 488 464 q 263 451 379 454 q 211 376 236 413 q 165 306 186 339 q 38 47 46 119 q 40 24 36 31 q 51 19 43 21 q 179 65 88 17 q 369 199 275 115 q 536 378 464 282 q 567 383 550 396 q 572 351 585 369 q 399 165 497 251 q 200 25 300 79 q 47 -25 97 -29 q 3 1 17 -22 q -6 51 -10 21 q 128 331 3 135 q 175 401 150 364 q 208 450 190 425 q 99 449 158 449 q 83 456 89 449 q 76 472 76 463 q 83 487 76 481 q 99 493 89 493 q 239 494 176 493 q 285 558 261 525 q 304 585 289 564 q 333 625 319 607 q 349 646 346 643 q 379 651 361 664 q 385 621 397 639 z "},"u":{"ha":572,"x_min":-29,"x_max":792,"o":"m 571 457 l 561 444 q 541 418 553 433 q 526 399 529 403 q 438 276 476 332 q 404 226 419 250 q 311 51 325 106 q 310 31 308 38 l 310 29 l 311 29 q 319 29 314 28 q 356 39 333 31 q 572 176 463 82 q 757 364 660 250 q 789 366 772 381 q 792 335 806 351 q 601 142 692 219 q 372 -3 485 43 q 285 -8 313 -26 q 265 25 268 3 q 268 63 263 40 q 292 121 275 88 q 193 51 240 81 q 69 -7 121 6 q 14 -7 38 -14 q -29 32 -15 3 q -28 82 -37 51 q -1 138 -21 106 q 88 271 26 189 q 110 303 99 286 q 137 339 118 314 q 173 386 156 364 q 192 411 190 408 q 242 482 232 464 q 256 492 247 490 q 272 490 264 494 q 283 477 281 486 q 281 460 285 468 q 228 385 269 439 q 209 359 226 382 q 173 311 192 336 q 146 276 154 286 q 124 246 133 260 q 38 115 64 164 q 15 68 21 88 q 11 54 13 60 q 11 50 11 51 q 60 38 21 28 q 169 89 103 47 q 282 171 225 124 q 349 232 331 211 q 360 239 353 238 q 367 250 363 244 q 401 301 383 275 q 490 425 440 358 q 521 465 503 440 q 531 476 528 474 q 533 481 532 479 l 533 482 q 565 488 546 500 q 571 457 583 476 z "},"v":{"ha":592,"x_min":25,"x_max":811,"o":"m 276 444 q 69 92 76 200 q 86 50 67 60 q 156 51 110 39 q 265 103 207 65 q 372 192 324 142 q 485 393 465 289 q 489 440 483 415 q 490 444 489 442 q 497 458 490 453 q 513 464 503 464 q 528 458 521 464 q 535 442 535 451 q 531 392 535 417 q 546 361 533 374 q 615 332 568 338 q 708 340 661 326 q 776 381 756 354 q 808 383 790 397 q 811 353 825 369 q 724 299 782 317 q 610 288 667 281 q 514 331 547 296 q 404 161 482 242 q 288 65 351 106 q 167 8 225 24 q 67 10 106 -8 q 25 94 21 32 q 243 472 33 217 q 274 475 257 489 q 276 444 292 461 z "},"w":{"ha":863,"x_min":3,"x_max":1082,"o":"m 582 457 q 564 431 576 449 q 558 423 563 429 q 550 411 554 417 q 542 400 546 406 l 539 396 q 475 301 500 340 q 429 228 449 263 q 378 29 332 61 q 492 42 415 1 q 657 176 569 83 q 776 338 736 261 q 783 351 781 344 q 778 394 779 371 q 778 428 776 415 q 786 446 781 439 q 819 450 801 463 q 842 390 847 432 q 831 350 840 372 q 932 319 858 310 q 999 339 967 324 q 1049 374 1032 354 q 1079 376 1063 390 q 1082 344 1096 361 q 1020 299 1060 318 q 938 275 981 281 q 810 307 856 264 q 689 146 767 229 q 517 6 600 50 q 351 -7 413 -51 q 321 44 326 11 q 326 108 317 71 q 339 144 331 125 q 328 135 333 140 l 324 131 q 318 125 319 126 q 229 49 263 74 q 119 -12 175 8 q 29 -18 58 -35 q 4 13 11 -8 q 3 50 0 28 q 86 236 11 111 q 121 293 103 263 q 200 408 156 346 q 214 431 206 418 q 226 447 222 442 q 235 458 232 454 q 236 461 236 460 l 236 463 q 250 472 242 469 q 267 471 258 475 q 278 458 275 467 q 276 440 281 449 q 263 421 274 438 q 251 404 261 418 l 250 404 q 236 383 242 393 q 158 269 192 321 q 124 214 140 240 q 47 44 54 96 q 47 25 44 32 q 50 21 47 22 q 104 29 63 14 q 201 85 153 49 q 288 158 233 108 q 293 163 289 158 q 299 168 297 167 q 388 244 354 219 q 390 250 389 247 q 438 326 411 286 q 503 421 464 365 l 508 429 q 519 446 514 438 q 528 457 525 454 q 544 482 539 474 q 576 488 557 500 q 582 457 594 476 z "},"x":{"ha":669,"x_min":57,"x_max":888,"o":"m 108 404 q 226 458 179 451 q 306 431 276 465 q 332 354 326 404 q 332 263 336 318 q 329 236 331 250 q 343 251 336 243 q 347 255 344 253 q 351 260 349 257 q 356 265 354 263 q 361 269 358 268 l 363 271 q 381 290 374 283 q 531 425 471 383 q 711 489 619 486 q 728 483 721 489 q 735 467 735 476 q 728 451 735 458 q 713 444 722 444 q 556 389 635 442 q 413 260 499 350 q 394 240 406 253 l 392 238 q 386 232 389 235 q 380 226 383 229 q 375 221 376 222 q 322 167 344 188 q 321 149 322 158 q 322 110 319 121 q 353 50 329 74 q 410 22 378 26 q 567 76 479 14 q 725 226 631 122 q 738 240 729 231 q 755 260 746 250 q 772 281 764 271 q 786 297 781 290 l 793 303 q 856 371 832 346 q 888 371 872 386 q 888 340 903 356 q 826 274 864 317 l 819 267 q 806 251 814 260 q 788 231 797 242 q 771 211 779 221 q 758 196 763 201 q 593 40 661 89 q 404 -22 492 -33 q 323 18 357 -15 q 278 100 289 51 q 276 122 276 110 q 243 93 260 107 q 85 3 164 29 q 68 4 76 0 q 57 17 60 8 q 58 33 54 25 q 71 44 63 42 q 215 128 142 68 q 279 186 246 153 q 283 215 281 194 q 288 265 286 246 q 271 403 294 374 q 232 414 258 418 q 133 368 194 408 q 103 374 115 356 q 108 404 90 393 z "},"y":{"ha":583,"x_min":-169,"x_max":803,"o":"m 569 442 q 468 288 540 401 q 438 241 467 286 q 401 183 410 196 q 329 71 361 118 q 308 39 318 54 q 368 58 329 46 q 372 60 371 58 q 489 104 453 83 q 582 174 536 131 q 663 254 613 200 q 675 267 667 258 q 771 361 733 329 q 802 358 788 375 q 800 328 817 342 q 707 236 764 297 q 696 224 700 229 q 613 140 643 168 q 511 65 563 94 q 449 38 483 50 q 385 17 426 29 l 383 17 l 382 15 q 274 -25 307 -7 q 264 -26 269 -26 q 239 -64 250 -46 q 92 -249 156 -181 q -43 -347 14 -332 q -110 -347 -81 -358 q -156 -312 -140 -336 q -169 -254 -171 -287 q -147 -190 -168 -221 q -116 -183 -135 -171 q -110 -214 -97 -196 q -118 -287 -137 -256 q -54 -306 -100 -317 q 60 -218 -11 -293 q 201 -37 121 -153 q 292 94 243 19 l 292 96 q 269 78 281 86 q 86 -14 172 4 q -3 -7 25 -28 q -24 64 -33 15 q 71 243 -11 125 q 115 303 92 271 q 200 407 153 351 q 219 430 207 415 q 240 456 231 444 q 250 467 249 467 q 281 469 264 483 q 283 438 297 456 l 275 426 q 253 401 265 415 q 233 379 240 388 q 151 276 188 324 q 107 217 128 244 q 19 56 31 108 q 22 29 15 35 q 76 29 35 19 q 243 114 154 46 q 385 246 313 167 q 392 251 388 250 q 408 276 399 261 q 422 299 417 290 q 431 311 428 308 q 535 468 504 428 q 565 473 547 486 q 569 442 583 460 z "},"z":{"ha":494,"x_min":-15,"x_max":714,"o":"m 592 239 q 599 250 596 244 q 681 357 649 321 q 712 358 696 374 q 714 326 728 343 q 635 225 683 293 l 628 214 q 542 101 575 138 q 425 10 488 42 q 349 -10 390 -10 q 276 1 318 -10 q 229 15 260 6 q 175 31 193 26 q 126 38 147 38 q 43 -6 78 36 q 11 -8 29 -22 q -15 -3 -4 -17 q -12 28 -29 14 q 214 206 63 93 q 226 214 217 207 q 236 222 235 221 q 417 363 356 311 q 488 421 454 393 q 449 421 469 419 q 385 426 428 422 q 317 432 339 431 q 260 428 283 433 q 197 372 210 418 q 186 358 194 363 q 169 356 178 354 q 156 367 161 358 q 154 383 151 375 q 251 472 175 456 q 319 476 279 478 q 389 471 342 475 q 504 467 471 463 q 569 508 553 474 q 599 519 579 526 q 614 513 607 519 q 614 482 629 497 q 446 328 544 408 q 263 186 383 276 q 252 179 261 186 q 240 171 243 172 q 124 82 165 115 q 126 82 125 82 q 186 74 153 82 q 243 57 204 69 q 288 44 272 49 q 404 49 360 25 q 508 132 460 78 q 592 239 540 165 z "},"{":{"ha":669,"x_min":-158,"x_max":894,"o":"m 194 504 q 104 497 153 500 q 200 413 136 471 q 203 410 201 411 q 246 371 231 385 q 253 363 250 368 q 336 364 289 363 q 300 399 318 381 q 194 504 263 435 m -76 490 q -31 443 -60 474 q -26 440 -29 443 q -22 436 -24 438 q 50 361 25 386 q 190 361 119 361 q 174 376 183 368 q 169 381 172 378 q 38 494 83 458 q -1 493 19 494 q -76 490 -58 492 m 92 186 q 210 192 153 188 q 281 267 236 218 q 289 278 285 271 q 328 319 315 306 q 219 317 267 318 q 157 254 197 296 q 144 242 153 250 q 92 186 108 203 m -100 224 q -81 240 -89 233 q 17 331 -14 297 q -56 406 -7 356 l -58 408 q -62 413 -61 411 q -135 488 -108 461 q -140 510 -144 497 q -134 526 -140 519 q -119 533 -128 533 q -3 538 -85 535 q 204 549 135 543 q 228 533 224 551 q 331 431 294 467 q 394 369 365 397 q 401 365 399 368 q 458 367 425 365 q 664 371 596 369 q 872 372 779 372 q 888 366 881 372 q 894 351 894 360 q 888 335 894 342 q 872 328 881 328 q 665 326 781 328 q 458 322 596 325 q 389 321 419 321 q 322 247 372 303 q 313 238 317 242 q 244 163 269 189 q 226 149 240 150 q 215 147 221 146 q 8 142 135 142 l 1 142 q -136 140 -87 142 q -152 147 -146 140 q -158 163 -158 153 q -151 179 -160 172 l -150 181 q -119 208 -137 193 q -100 224 -111 215 m 32 190 q 113 272 57 214 q 125 285 119 281 q 156 317 142 303 q 63 317 110 317 q 60 313 61 314 q -53 207 24 271 l -71 190 q -76 186 -74 189 q 1 186 -67 186 l 8 186 q 28 186 19 186 q 32 190 29 189 z "},"}":{"ha":874,"x_min":39,"x_max":1093,"o":"m 890 558 q 947 511 914 538 q 976 488 953 507 q 1003 467 1000 469 q 1088 397 1054 426 q 1090 394 1089 396 l 1092 394 q 1093 363 1107 379 q 1085 357 1089 360 q 892 171 981 253 q 869 165 882 161 q 856 174 861 167 q 851 189 850 181 q 860 332 858 260 q 61 318 413 332 q 46 324 53 318 q 39 340 39 331 q 45 356 39 349 q 60 363 51 363 q 860 376 411 376 q 851 532 860 460 q 853 543 851 538 q 858 554 854 550 q 890 558 872 572 z "},"":{"ha":417,"x_min":0,"x_max":0,"o":""}}}
